<?xml version="1.0" encoding="utf-8"?>
<!-- Generator: Adobe Illustrator 24.0.1, SVG Export Plug-In . SVG Version: 6.00 Build 0)  -->
<svg version="1.1" id="Layer_1" xmlns="http://www.w3.org/2000/svg" xmlns:xlink="http://www.w3.org/1999/xlink" x="0px" y="0px"
	 viewBox="0 0 3692.3 2093.1" style="enable-background:new 0 0 3692.3 2093.1;" xml:space="preserve">
<style type="text/css">
	.st0{display:none;fill:#8E6868;}
	.st1{fill:#F9EFDB;}
	.st2{display:none;fill:none;}
	.st3{display:none;}
	.st4{display:inline;fill:url(#SVGID_1_);}
	.st5{opacity:0.15;}
	.st6{fill:none;stroke:#8E6868;stroke-width:37.4426;stroke-linecap:round;stroke-miterlimit:1;}
	.st7{fill:none;stroke:#8E6868;stroke-width:36.8033;stroke-linecap:round;stroke-miterlimit:1;}
	.st8{fill:none;stroke:#8E6868;stroke-width:36.1639;stroke-linecap:round;stroke-miterlimit:1;}
	.st9{fill:none;stroke:#8E6868;stroke-width:35.5246;stroke-linecap:round;stroke-miterlimit:1;}
	.st10{fill:none;stroke:#8E6868;stroke-width:34.8852;stroke-linecap:round;stroke-miterlimit:1;}
	.st11{fill:none;stroke:#8E6868;stroke-width:34.2459;stroke-linecap:round;stroke-miterlimit:1;}
	.st12{fill:none;stroke:#8E6868;stroke-width:33.6066;stroke-linecap:round;stroke-miterlimit:1;}
	.st13{fill:none;stroke:#8E6868;stroke-width:32.9672;stroke-linecap:round;stroke-miterlimit:1;}
	.st14{fill:none;stroke:#8E6868;stroke-width:32.3279;stroke-linecap:round;stroke-miterlimit:1;}
	.st15{fill:none;stroke:#8E6868;stroke-width:31.6885;stroke-linecap:round;stroke-miterlimit:1;}
	.st16{fill:none;stroke:#8E6868;stroke-width:31.0492;stroke-linecap:round;stroke-miterlimit:1;}
	.st17{fill:none;stroke:#8E6868;stroke-width:30.4098;stroke-linecap:round;stroke-miterlimit:1;}
	.st18{fill:none;stroke:#8E6868;stroke-width:29.7705;stroke-linecap:round;stroke-miterlimit:1;}
	.st19{fill:none;stroke:#8E6868;stroke-width:29.1311;stroke-linecap:round;stroke-miterlimit:1;}
	.st20{fill:none;stroke:#8E6868;stroke-width:28.4918;stroke-linecap:round;stroke-miterlimit:1;}
	.st21{fill:none;stroke:#8E6868;stroke-width:27.8525;stroke-linecap:round;stroke-miterlimit:1;}
	.st22{fill:none;stroke:#8E6868;stroke-width:27.2131;stroke-linecap:round;stroke-miterlimit:1;}
	.st23{fill:none;stroke:#8E6868;stroke-width:26.5738;stroke-linecap:round;stroke-miterlimit:1;}
	.st24{fill:none;stroke:#8E6868;stroke-width:25.9344;stroke-linecap:round;stroke-miterlimit:1;}
	.st25{fill:none;stroke:#8E6868;stroke-width:25.2951;stroke-linecap:round;stroke-miterlimit:1;}
	.st26{fill:none;stroke:#8E6868;stroke-width:24.6557;stroke-linecap:round;stroke-miterlimit:1;}
	.st27{fill:none;stroke:#8E6868;stroke-width:24.0164;stroke-linecap:round;stroke-miterlimit:1;}
	.st28{fill:none;stroke:#8E6868;stroke-width:23.377;stroke-linecap:round;stroke-miterlimit:1;}
	.st29{fill:none;stroke:#8E6868;stroke-width:22.7377;stroke-linecap:round;stroke-miterlimit:1;}
	.st30{fill:none;stroke:#8E6868;stroke-width:22.0984;stroke-linecap:round;stroke-miterlimit:1;}
	.st31{fill:none;stroke:#8E6868;stroke-width:21.459;stroke-linecap:round;stroke-miterlimit:1;}
	.st32{fill:none;stroke:#8E6868;stroke-width:20.8197;stroke-linecap:round;stroke-miterlimit:1;}
	.st33{fill:none;stroke:#8E6868;stroke-width:20.1803;stroke-linecap:round;stroke-miterlimit:1;}
	.st34{fill:none;stroke:#8E6868;stroke-width:19.541;stroke-linecap:round;stroke-miterlimit:1;}
	.st35{fill:none;stroke:#8E6868;stroke-width:18.9016;stroke-linecap:round;stroke-miterlimit:1;}
	.st36{fill:none;stroke:#8E6868;stroke-width:18.2623;stroke-linecap:round;stroke-miterlimit:1;}
	.st37{fill:none;stroke:#8E6868;stroke-width:17.623;stroke-linecap:round;stroke-miterlimit:1;}
	.st38{fill:none;stroke:#8E6868;stroke-width:16.9836;stroke-linecap:round;stroke-miterlimit:1;}
	.st39{fill:none;stroke:#8E6868;stroke-width:16.3443;stroke-linecap:round;stroke-miterlimit:1;}
	.st40{fill:none;stroke:#8E6868;stroke-width:15.7049;stroke-linecap:round;stroke-miterlimit:1;}
	.st41{fill:none;stroke:#8E6868;stroke-width:15.0656;stroke-linecap:round;stroke-miterlimit:1;}
	.st42{fill:none;stroke:#8E6868;stroke-width:14.4262;stroke-linecap:round;stroke-miterlimit:1;}
	.st43{fill:none;stroke:#8E6868;stroke-width:13.7869;stroke-linecap:round;stroke-miterlimit:1;}
	.st44{fill:none;stroke:#8E6868;stroke-width:13.1475;stroke-linecap:round;stroke-miterlimit:1;}
	.st45{fill:none;stroke:#8E6868;stroke-width:12.5082;stroke-linecap:round;stroke-miterlimit:1;}
	.st46{fill:none;stroke:#8E6868;stroke-width:11.8689;stroke-linecap:round;stroke-miterlimit:1;}
	.st47{fill:none;stroke:#8E6868;stroke-width:11.2295;stroke-linecap:round;stroke-miterlimit:1;}
	.st48{fill:none;stroke:#8E6868;stroke-width:10.5902;stroke-linecap:round;stroke-miterlimit:1;}
	.st49{fill:none;stroke:#8E6868;stroke-width:9.9508;stroke-linecap:round;stroke-miterlimit:1;}
	.st50{fill:none;stroke:#8E6868;stroke-width:9.3115;stroke-linecap:round;stroke-miterlimit:1;}
	.st51{fill:none;stroke:#8E6868;stroke-width:8.6721;stroke-linecap:round;stroke-miterlimit:1;}
	.st52{fill:none;stroke:#8E6868;stroke-width:8.0328;stroke-linecap:round;stroke-miterlimit:1;}
	.st53{fill:none;stroke:#8E6868;stroke-width:7.3934;stroke-linecap:round;stroke-miterlimit:1;}
	.st54{fill:none;stroke:#8E6868;stroke-width:6.7541;stroke-linecap:round;stroke-miterlimit:1;}
	.st55{fill:none;stroke:#8E6868;stroke-width:6.1147;stroke-linecap:round;stroke-miterlimit:1;}
	.st56{fill:none;stroke:#8E6868;stroke-width:5.4754;stroke-linecap:round;stroke-miterlimit:1;}
	.st57{fill:none;stroke:#8E6868;stroke-width:4.8361;stroke-linecap:round;stroke-miterlimit:1;}
</style>
<rect x="-1391.5" y="-578.4" class="st0" width="6863" height="3374.3"/>
<rect x="-1492.9" y="-640.6" class="st1" width="6863" height="3374.3"/>
<rect x="7.5" y="18.7" class="st2" width="3666" height="2061.8"/>
<g class="st3">
	
		<linearGradient id="SVGID_1_" gradientUnits="userSpaceOnUse" x1="1547.7637" y1="1467.1987" x2="1548.755" y2="1467.1987" gradientTransform="matrix(3683.6699 -2104.96 -2104.96 -3683.6699 -2613041.25 8664749)">
		<stop  offset="0" style="stop-color:#6F9DD9"/>
		<stop  offset="1.562500e-02" style="stop-color:#6F9DD9"/>
		<stop  offset="3.125000e-02" style="stop-color:#6F9CD8"/>
		<stop  offset="6.250000e-02" style="stop-color:#6F9BD8"/>
		<stop  offset="7.812500e-02" style="stop-color:#6F9BD8"/>
		<stop  offset="9.375000e-02" style="stop-color:#6F9AD7"/>
		<stop  offset="0.1016" style="stop-color:#709AD7"/>
		<stop  offset="0.1094" style="stop-color:#7099D7"/>
		<stop  offset="0.1172" style="stop-color:#7099D6"/>
		<stop  offset="0.125" style="stop-color:#7198D6"/>
		<stop  offset="0.1328" style="stop-color:#7197D6"/>
		<stop  offset="0.1406" style="stop-color:#7297D5"/>
		<stop  offset="0.1484" style="stop-color:#7296D5"/>
		<stop  offset="0.1563" style="stop-color:#7396D5"/>
		<stop  offset="0.1641" style="stop-color:#7495D4"/>
		<stop  offset="0.1719" style="stop-color:#7594D4"/>
		<stop  offset="0.1797" style="stop-color:#7594D3"/>
		<stop  offset="0.1875" style="stop-color:#7693D3"/>
		<stop  offset="0.1953" style="stop-color:#7693D3"/>
		<stop  offset="0.1992" style="stop-color:#7792D2"/>
		<stop  offset="0.2031" style="stop-color:#7791D2"/>
		<stop  offset="0.207" style="stop-color:#7791D2"/>
		<stop  offset="0.2109" style="stop-color:#7891D1"/>
		<stop  offset="0.2148" style="stop-color:#7890D1"/>
		<stop  offset="0.2188" style="stop-color:#7890D1"/>
		<stop  offset="0.2266" style="stop-color:#7990D1"/>
		<stop  offset="0.2344" style="stop-color:#7A8FD1"/>
		<stop  offset="0.2383" style="stop-color:#7A8FD0"/>
		<stop  offset="0.2422" style="stop-color:#7B8ECF"/>
		<stop  offset="0.2461" style="stop-color:#7B8ECE"/>
		<stop  offset="0.25" style="stop-color:#7B8DCD"/>
		<stop  offset="0.2539" style="stop-color:#7C8DCD"/>
		<stop  offset="0.2578" style="stop-color:#7C8DCC"/>
		<stop  offset="0.2617" style="stop-color:#7D8CCB"/>
		<stop  offset="0.2656" style="stop-color:#7D8CCA"/>
		<stop  offset="0.2695" style="stop-color:#7E8CC9"/>
		<stop  offset="0.2734" style="stop-color:#7E8BC9"/>
		<stop  offset="0.2773" style="stop-color:#7F8BC8"/>
		<stop  offset="0.2813" style="stop-color:#7F8AC7"/>
		<stop  offset="0.2852" style="stop-color:#7F8AC6"/>
		<stop  offset="0.2891" style="stop-color:#808AC5"/>
		<stop  offset="0.293" style="stop-color:#8089C4"/>
		<stop  offset="0.2969" style="stop-color:#8089C3"/>
		<stop  offset="0.3008" style="stop-color:#8188C2"/>
		<stop  offset="0.3047" style="stop-color:#8188C1"/>
		<stop  offset="0.3086" style="stop-color:#8287C0"/>
		<stop  offset="0.3125" style="stop-color:#8287BF"/>
		<stop  offset="0.3164" style="stop-color:#8387BE"/>
		<stop  offset="0.3203" style="stop-color:#8386BD"/>
		<stop  offset="0.3242" style="stop-color:#8486BC"/>
		<stop  offset="0.3281" style="stop-color:#8486BB"/>
		<stop  offset="0.332" style="stop-color:#8585BB"/>
		<stop  offset="0.3359" style="stop-color:#8585BA"/>
		<stop  offset="0.3398" style="stop-color:#8684B9"/>
		<stop  offset="0.3438" style="stop-color:#8784B8"/>
		<stop  offset="0.3477" style="stop-color:#8784B7"/>
		<stop  offset="0.3516" style="stop-color:#8883B6"/>
		<stop  offset="0.3555" style="stop-color:#8883B5"/>
		<stop  offset="0.3594" style="stop-color:#8983B4"/>
		<stop  offset="0.3633" style="stop-color:#8982B3"/>
		<stop  offset="0.3672" style="stop-color:#8A82B2"/>
		<stop  offset="0.3711" style="stop-color:#8A81B1"/>
		<stop  offset="0.375" style="stop-color:#8B81B0"/>
		<stop  offset="0.3789" style="stop-color:#8B80AE"/>
		<stop  offset="0.3828" style="stop-color:#8C80AD"/>
		<stop  offset="0.3867" style="stop-color:#8C7FAC"/>
		<stop  offset="0.3906" style="stop-color:#8D7FAB"/>
		<stop  offset="0.3945" style="stop-color:#8D7EAA"/>
		<stop  offset="0.3984" style="stop-color:#8E7EA9"/>
		<stop  offset="0.4023" style="stop-color:#8F7EA8"/>
		<stop  offset="0.4063" style="stop-color:#8F7DA7"/>
		<stop  offset="0.4102" style="stop-color:#907DA6"/>
		<stop  offset="0.4141" style="stop-color:#917DA5"/>
		<stop  offset="0.418" style="stop-color:#917CA4"/>
		<stop  offset="0.4219" style="stop-color:#927CA3"/>
		<stop  offset="0.4258" style="stop-color:#937CA2"/>
		<stop  offset="0.4297" style="stop-color:#937BA1"/>
		<stop  offset="0.4336" style="stop-color:#937BA0"/>
		<stop  offset="0.4375" style="stop-color:#947B9F"/>
		<stop  offset="0.4414" style="stop-color:#947A9E"/>
		<stop  offset="0.4453" style="stop-color:#957A9D"/>
		<stop  offset="0.4492" style="stop-color:#96799C"/>
		<stop  offset="0.4531" style="stop-color:#96799C"/>
		<stop  offset="0.457" style="stop-color:#97799B"/>
		<stop  offset="0.4609" style="stop-color:#98789A"/>
		<stop  offset="0.4648" style="stop-color:#987899"/>
		<stop  offset="0.4688" style="stop-color:#987798"/>
		<stop  offset="0.4727" style="stop-color:#997797"/>
		<stop  offset="0.4766" style="stop-color:#9A7696"/>
		<stop  offset="0.4805" style="stop-color:#9A7695"/>
		<stop  offset="0.4844" style="stop-color:#9B7694"/>
		<stop  offset="0.4883" style="stop-color:#9C7593"/>
		<stop  offset="0.4922" style="stop-color:#9D7592"/>
		<stop  offset="0.4961" style="stop-color:#9D7490"/>
		<stop  offset="0.5" style="stop-color:#9E748F"/>
		<stop  offset="0.5039" style="stop-color:#9F748E"/>
		<stop  offset="0.5078" style="stop-color:#9F738D"/>
		<stop  offset="0.5117" style="stop-color:#A0738C"/>
		<stop  offset="0.5156" style="stop-color:#A1728B"/>
		<stop  offset="0.5195" style="stop-color:#A2728B"/>
		<stop  offset="0.5234" style="stop-color:#A3718A"/>
		<stop  offset="0.5273" style="stop-color:#A37189"/>
		<stop  offset="0.5313" style="stop-color:#A47088"/>
		<stop  offset="0.5352" style="stop-color:#A47087"/>
		<stop  offset="0.5391" style="stop-color:#A57086"/>
		<stop  offset="0.543" style="stop-color:#A56F85"/>
		<stop  offset="0.5469" style="stop-color:#A66F84"/>
		<stop  offset="0.5508" style="stop-color:#A76F83"/>
		<stop  offset="0.5547" style="stop-color:#A86E82"/>
		<stop  offset="0.5586" style="stop-color:#A86E81"/>
		<stop  offset="0.5625" style="stop-color:#A96E80"/>
		<stop  offset="0.5664" style="stop-color:#AA6D7F"/>
		<stop  offset="0.5703" style="stop-color:#AB6D7E"/>
		<stop  offset="0.5742" style="stop-color:#AC6C7D"/>
		<stop  offset="0.5781" style="stop-color:#AC6C7C"/>
		<stop  offset="0.582" style="stop-color:#AD6B7B"/>
		<stop  offset="0.5859" style="stop-color:#AD6B7A"/>
		<stop  offset="0.5898" style="stop-color:#AE6A79"/>
		<stop  offset="0.5938" style="stop-color:#AE6A78"/>
		<stop  offset="0.5977" style="stop-color:#AF6977"/>
		<stop  offset="0.6016" style="stop-color:#AF6976"/>
		<stop  offset="0.6055" style="stop-color:#B06975"/>
		<stop  offset="0.6094" style="stop-color:#B16874"/>
		<stop  offset="0.6133" style="stop-color:#B26873"/>
		<stop  offset="0.6172" style="stop-color:#B36872"/>
		<stop  offset="0.6211" style="stop-color:#B36771"/>
		<stop  offset="0.625" style="stop-color:#B46770"/>
		<stop  offset="0.6289" style="stop-color:#B4666F"/>
		<stop  offset="0.6328" style="stop-color:#B5666E"/>
		<stop  offset="0.6367" style="stop-color:#B6656D"/>
		<stop  offset="0.6406" style="stop-color:#B7656C"/>
		<stop  offset="0.6445" style="stop-color:#B7646B"/>
		<stop  offset="0.6484" style="stop-color:#B8646B"/>
		<stop  offset="0.6523" style="stop-color:#B9636A"/>
		<stop  offset="0.6563" style="stop-color:#B96369"/>
		<stop  offset="0.6602" style="stop-color:#BA6368"/>
		<stop  offset="0.6641" style="stop-color:#BB6367"/>
		<stop  offset="0.668" style="stop-color:#BB6265"/>
		<stop  offset="0.6719" style="stop-color:#BC6264"/>
		<stop  offset="0.6758" style="stop-color:#BC6163"/>
		<stop  offset="0.6797" style="stop-color:#BD6162"/>
		<stop  offset="0.6836" style="stop-color:#BE6061"/>
		<stop  offset="0.6875" style="stop-color:#BF6060"/>
		<stop  offset="0.6914" style="stop-color:#BF605F"/>
		<stop  offset="0.6953" style="stop-color:#C05F5E"/>
		<stop  offset="0.6992" style="stop-color:#C15F5D"/>
		<stop  offset="0.7031" style="stop-color:#C25F5C"/>
		<stop  offset="0.707" style="stop-color:#C25E5B"/>
		<stop  offset="0.7109" style="stop-color:#C35E5A"/>
		<stop  offset="0.7148" style="stop-color:#C45D59"/>
		<stop  offset="0.7188" style="stop-color:#C45D58"/>
		<stop  offset="0.7227" style="stop-color:#C55D57"/>
		<stop  offset="0.7266" style="stop-color:#C65C56"/>
		<stop  offset="0.7305" style="stop-color:#C65C55"/>
		<stop  offset="0.7344" style="stop-color:#C75C54"/>
		<stop  offset="0.7383" style="stop-color:#C85B53"/>
		<stop  offset="0.7422" style="stop-color:#C85B53"/>
		<stop  offset="0.7461" style="stop-color:#C95A52"/>
		<stop  offset="0.75" style="stop-color:#CA5A51"/>
		<stop  offset="0.7539" style="stop-color:#CB5A50"/>
		<stop  offset="0.7578" style="stop-color:#CB594F"/>
		<stop  offset="0.7617" style="stop-color:#CC594E"/>
		<stop  offset="0.7656" style="stop-color:#CD584D"/>
		<stop  offset="0.7695" style="stop-color:#CD584C"/>
		<stop  offset="0.7734" style="stop-color:#CE584B"/>
		<stop  offset="0.7773" style="stop-color:#CF574A"/>
		<stop  offset="0.7813" style="stop-color:#CF5749"/>
		<stop  offset="0.7852" style="stop-color:#D05748"/>
		<stop  offset="0.7891" style="stop-color:#D15647"/>
		<stop  offset="0.793" style="stop-color:#D15647"/>
		<stop  offset="0.7969" style="stop-color:#D25546"/>
		<stop  offset="0.8008" style="stop-color:#D35545"/>
		<stop  offset="0.8047" style="stop-color:#D45544"/>
		<stop  offset="0.8086" style="stop-color:#D45544"/>
		<stop  offset="0.8125" style="stop-color:#D55443"/>
		<stop  offset="0.8164" style="stop-color:#D55442"/>
		<stop  offset="0.8203" style="stop-color:#D65441"/>
		<stop  offset="0.8242" style="stop-color:#D65340"/>
		<stop  offset="0.8281" style="stop-color:#D7533F"/>
		<stop  offset="0.832" style="stop-color:#D7533F"/>
		<stop  offset="0.8359" style="stop-color:#D8533E"/>
		<stop  offset="0.8398" style="stop-color:#D9523D"/>
		<stop  offset="0.8438" style="stop-color:#DA523C"/>
		<stop  offset="0.8477" style="stop-color:#DA523B"/>
		<stop  offset="0.8516" style="stop-color:#DB523A"/>
		<stop  offset="0.8555" style="stop-color:#DB513A"/>
		<stop  offset="0.8594" style="stop-color:#DC5139"/>
		<stop  offset="0.8633" style="stop-color:#DC5038"/>
		<stop  offset="0.8672" style="stop-color:#DD5037"/>
		<stop  offset="0.8711" style="stop-color:#DD4F37"/>
		<stop  offset="0.875" style="stop-color:#DE4F36"/>
		<stop  offset="0.8789" style="stop-color:#DF4F35"/>
		<stop  offset="0.8828" style="stop-color:#E04E34"/>
		<stop  offset="0.8867" style="stop-color:#E14E34"/>
		<stop  offset="0.8906" style="stop-color:#E24E33"/>
		<stop  offset="0.8945" style="stop-color:#E24E33"/>
		<stop  offset="0.8984" style="stop-color:#E24D32"/>
		<stop  offset="0.9023" style="stop-color:#E34D31"/>
		<stop  offset="0.9063" style="stop-color:#E34D31"/>
		<stop  offset="0.9102" style="stop-color:#E44C30"/>
		<stop  offset="0.9141" style="stop-color:#E54C2E"/>
		<stop  offset="0.918" style="stop-color:#E54C2D"/>
		<stop  offset="0.9219" style="stop-color:#E64B2C"/>
		<stop  offset="0.9258" style="stop-color:#E74B2B"/>
		<stop  offset="0.9297" style="stop-color:#E74B2A"/>
		<stop  offset="0.9336" style="stop-color:#E74B29"/>
		<stop  offset="0.9375" style="stop-color:#E84B28"/>
		<stop  offset="0.9414" style="stop-color:#E84B28"/>
		<stop  offset="0.9453" style="stop-color:#E94B27"/>
		<stop  offset="0.9492" style="stop-color:#E94A26"/>
		<stop  offset="0.9531" style="stop-color:#EA4A25"/>
		<stop  offset="0.957" style="stop-color:#EB4A25"/>
		<stop  offset="0.9609" style="stop-color:#EB4924"/>
		<stop  offset="0.9648" style="stop-color:#EC4924"/>
		<stop  offset="0.9688" style="stop-color:#ED4923"/>
		<stop  offset="0.9727" style="stop-color:#ED4823"/>
		<stop  offset="0.9766" style="stop-color:#EE4823"/>
		<stop  offset="0.9805" style="stop-color:#EE4723"/>
		<stop  offset="0.9844" style="stop-color:#EF4723"/>
		<stop  offset="0.9883" style="stop-color:#EF4722"/>
		<stop  offset="0.9922" style="stop-color:#F04722"/>
		<stop  offset="0.9961" style="stop-color:#F04622"/>
		<stop  offset="1" style="stop-color:#F04621"/>
	</linearGradient>
	<path class="st4" d="M-880.6,526.2L909.9,3659.7L4561.7,1573L2771.1-1560.5L-880.6,526.2z"/>
</g>
<g class="st5">
	<g>
		<path class="st6" d="M73.3,2080.5c-21.9-6.3-43.8-12.7-65.8-19.4"/>
	</g>
	<g>
		<path class="st7" d="M285.3,2080.5c-90.1-24.3-183.5-50.9-277.7-82"/>
	</g>
	<g>
		<path class="st8" d="M497.7,2080.5c-153.1-41.2-321.2-86.3-490.1-147.1"/>
	</g>
	<g>
		<path class="st9" d="M699.1,2080.5c-204.3-59.8-449-119.5-691.6-214.8"/>
	</g>
	<g>
		<path class="st10" d="M880.1,2080.5C640.7,1998.3,319.3,1929,7.5,1795.1"/>
	</g>
	<g>
		<path class="st11" d="M1037.2,2080.5c-258.4-109.3-655.8-183.2-1029.7-359"/>
	</g>
	<g>
		<path class="st12" d="M1172.2,2080.5C908.6,1939.3,436.1,1865.3,7.5,1644.4"/>
	</g>
	<g>
		<path class="st13" d="M1289.1,2080.5C1031,1903.1,483.5,1833.1,7.5,1563.6"/>
	</g>
	<g>
		<path class="st14" d="M1391.9,2080.5c-244.5-217.2-867.9-279.8-1384.4-601.9"/>
	</g>
	<g>
		<path class="st15" d="M1484.2,2080.5c-4.1-4.4-8.2-8.7-12.4-13.1c-236.7-249.1-923.2-305.6-1464.3-678.2"/>
	</g>
	<g>
		<path class="st16" d="M1572.5,2080.5c-13.3-15.1-26.9-30.3-40.9-45.5c-244.9-266.1-975.6-322-1524-740.4"/>
	</g>
	<g>
		<path class="st17" d="M1658.4,2080.5c-21.5-25.7-43.9-51.7-67.2-77.8C1337.9,1718.6,560.5,1663.8,7.5,1194.3"/>
	</g>
	<g>
		<path class="st18" d="M1742.5,2080.5c-28.9-36.1-59.4-72.9-91.6-110.2c-261.8-303.1-1089-356.1-1643.4-882.8"/>
	</g>
	<g>
		<path class="st19" d="M1825.1,2080.5c-35.6-46.3-73.8-93.9-114.5-142.5c-270.7-323.3-1151-373.9-1703.1-964.7"/>
	</g>
	<g>
		<path class="st20" d="M1906.5,2080.5c-42-56.3-87.4-114.7-136.2-174.9C1490.4,1560.8,552.8,1513.4,7.5,850.2"/>
	</g>
	<g>
		<path class="st21" d="M1987,2080.5c-48.1-66-100.4-135.3-157-207.2C1540.4,1505.3,540.8,1462.4,7.5,716.8"/>
	</g>
	<g>
		<path class="st22" d="M2067,2080.5c-54-75.3-113.1-155.5-177.3-239.6C1589.9,1448,522.2,1410.9,7.5,570.5"/>
	</g>
	<g>
		<path class="st23" d="M2146.4,2080.5c-59.8-84.2-125.6-175.4-197.1-271.9C1638.6,1388.5,495,1359.1,7.5,407.8"/>
	</g>
	<g>
		<path class="st24" d="M2225.7,2080.5c-65.6-92.8-138.1-194.8-216.7-304.3c-322.9-450.1-1553-469-2001.5-1553.3"/>
	</g>
	<g>
		<path class="st25" d="M2305,2080.5c-71.4-101-150.8-213.9-236.2-336.6C1733.2,1261.6,409.2,1255.3,12.1,18.7"/>
	</g>
	<g>
		<path class="st26" d="M2384.4,2080.5c-77.5-108.6-163.8-232.4-256-369C1799.5,1224,511.4,1204.4,88.8,18.7"/>
	</g>
	<g>
		<path class="st27" d="M2464.2,2080.5c-83.7-115.8-177.3-250.4-276-401.3C1865.8,1186.6,614,1153.8,166.6,18.7"/>
	</g>
	<g>
		<path class="st28" d="M2544.5,2080.5c-90.1-122.4-191.3-267.8-296.6-433.7C1932.1,1149.5,717,1103.5,245.8,18.7"/>
	</g>
	<g>
		<path class="st29" d="M2625.4,2080.5c-96.8-128.3-206.1-284.6-317.9-466c-309-501.8-1487.3-560.9-1981.3-1595.7"/>
	</g>
	<g>
		<path class="st30" d="M2707.2,2080.5c-103.7-133.6-221.8-300.6-339.9-498.4C2065.1,1076.2,924,1003.9,408.4,18.7"/>
	</g>
	<g>
		<path class="st31" d="M2790,2080.5c-111-138.2-238.5-315.8-363.1-530.7c-295.2-509.6-1398.8-595-1934.9-1531"/>
	</g>
	<g>
		<path class="st32" d="M2874.1,2080.5c-118.5-141.9-256.5-330-387.4-563.1C2198.4,1004.4,1132.8,906.1,577.7,18.7"/>
	</g>
	<g>
		<path class="st33" d="M2959.6,2080.5c-126.3-144.7-275.8-343.2-413.2-595.4C2265.3,969.2,1237.9,857.9,665.3,18.7"/>
	</g>
	<g>
		<path class="st34" d="M3046.7,2080.5c-134.3-146.5-296.6-355.1-440.7-627.8C2332.2,934.5,1343.6,810.4,755.2,18.7"/>
	</g>
	<g>
		<path class="st35" d="M3135.9,2080.5c-142.4-147.1-319.2-365.4-470.2-660.1C2399.3,900.4,1450,763.5,847.6,18.7"/>
	</g>
	<g>
		<path class="st36" d="M3227.3,2080.5c-150.4-146.2-343.7-374.1-501.9-692.5C2466.5,866.9,1556.9,717.4,942.7,18.7"/>
	</g>
	<g>
		<path class="st37" d="M3321.4,2080.5c-157.9-143.6-370.4-380.5-536.3-724.8C2533.9,834.2,1664.6,672.3,1040.9,18.7"/>
	</g>
	<g>
		<path class="st38" d="M3418.6,2080.5c-164.5-139-399.6-384.2-573.8-757.2c-243.3-521-1071.7-695.1-1702.4-1304.6"/>
	</g>
	<g>
		<path class="st39" d="M3519.5,2080.5c-169.3-131.6-431.5-384.2-615-789.5C2669.3,771.3,1882.4,585.3,1247.6,18.7"/>
	</g>
	<g>
		<path class="st40" d="M3625,2080.5c-170.3-120.4-466.4-378.9-660.8-821.9C2737.3,741.3,1992.5,543.8,1356.9,18.7"/>
	</g>
	<g>
		<path class="st41" d="M3673.5,2038.6c-177.1-124.4-465.5-379.3-649.6-812.4C2805.6,712.5,2103.5,503.9,1470.5,18.7"/>
	</g>
	<g>
		<path class="st42" d="M3673.5,1962.1c-181.1-136.3-430.1-380.1-589.9-768.3C2874.1,685,2215.3,465.8,1588.8,18.7"/>
	</g>
	<g>
		<path class="st43" d="M3673.5,1883.7c-176.2-142.3-391.2-373.5-530.2-722.1C2942.9,659,2327.9,429.9,1712.1,18.7"/>
	</g>
	<g>
		<path class="st44" d="M3673.5,1802.7c-165.4-144.1-350-361.4-470.5-673.6C3012,634.5,2441.2,396.3,1840.5,18.7"/>
	</g>
	<g>
		<path class="st45" d="M3673.5,1718.6c-150.7-142.5-307.1-344.4-410.8-621.8C3081.3,611.7,2554.9,365.5,1973.9,18.7"/>
	</g>
	<g>
		<path class="st46" d="M3673.5,1630.3c-132.8-137.8-263.1-322.6-351.1-565.9C3150.9,590.6,2668.8,337.6,2112,18.7"/>
	</g>
	<g>
		<path class="st47" d="M3673.5,1536.6c-112.7-129.8-218.3-295.4-291.4-504.5C3220.7,571.3,2782.3,312.8,2254.2,18.7"/>
	</g>
	<g>
		<path class="st48" d="M3673.5,1435.6c-90.7-118-172.8-261.8-231.8-435.8c-151.1-446-546.9-708.4-1042.4-981.1"/>
	</g>
	<g>
		<path class="st49" d="M3673.5,1324.4c-67.4-101.7-127.2-219.9-172.1-357C3360.7,537.6,3006,273.1,2546,18.7"/>
	</g>
	<g>
		<path class="st50" d="M3673.5,1198.2c-43.4-78.8-81.7-166.2-112.4-263.1C3430.6,522.7,3115,257.9,2692.7,18.7"/>
	</g>
	<g>
		<path class="st51" d="M3673.5,1047.3c-19.5-45.7-37.1-93.8-52.7-144.6c-120.5-394-399.7-657.4-783.4-884"/>
	</g>
	<g>
		<path class="st52" d="M3673.5,847.3c-114-362.7-356.6-616.8-694.7-828.6"/>
	</g>
	<g>
		<path class="st53" d="M3673.5,653.1c-116.3-262.6-306.1-464.5-558-634.4"/>
	</g>
	<g>
		<path class="st54" d="M3673.5,492.2c-103.1-186.7-246.4-340.8-426.7-473.5"/>
	</g>
	<g>
		<path class="st55" d="M3673.5,348.7c-81.3-124.3-181.9-233.2-301.4-330"/>
	</g>
	<g>
		<path class="st56" d="M3491.3,18.7c67.8,60.9,128.5,126.7,182.2,198"/>
	</g>
	<g>
		<path class="st57" d="M3604.6,18.7c24,24.1,47,48.9,69,74.5"/>
	</g>
</g>
</svg>
